HIERARCHY
ROOT hip
{
  OFFSET 0 0 0
  CHANNELS 6 Xposition Yposition Zposition Zrotation Yrotation Xrotation
  JOINT abdomen
  {
    OFFSET 0 20.6881 -0.73152
    CHANNELS 3 Zrotation Xrotation Yrotation
    JOINT chest
    {
      OFFSET 0 11.7043 -0.48768
      CHANNELS 3 Zrotation Xrotation Yrotation
      JOINT neck
      {
        OFFSET 0 22.1894 -2.19456
        CHANNELS 3 Zrotation Xrotation Yrotation
        JOINT head
        {
          OFFSET -0.24384 7.07133 1.2192
          CHANNELS 3 Zrotation Xrotation Yrotation
          JOINT leftEye
          {
            OFFSET 4.14528 8.04674 8.04672
            CHANNELS 3 Zrotation Xrotation Yrotation
            End Site
            {
              OFFSET 1 0 0
            }
          }
          JOINT rightEye
          {
            OFFSET -3.6576 8.04674 8.04672
            CHANNELS 3 Zrotation Xrotation Yrotation
            End Site
            {
              OFFSET 1 0 0
            }
          }
        }
      }
      JOINT rCollar
      {
        OFFSET -2.68224 19.2634 -4.8768
        CHANNELS 3 Zrotation Xrotation Yrotation
        JOINT rShldr
        {
          OFFSET -8.77824 -1.95073 1.46304
          CHANNELS 3 Zrotation Xrotation Yrotation
          JOINT rForeArm
          {
            OFFSET -28.1742 -1.7115 0.48768
            CHANNELS 3 Zrotation Xrotation Yrotation
            JOINT rHand
            {
              OFFSET -22.5879 0.773209 7.07136
              CHANNELS 3 Zrotation Xrotation Yrotation
              JOINT rThumb1
              {
                OFFSET -1.2192 -0.487915 3.41376
                CHANNELS 3 Zrotation Xrotation Yrotation
                JOINT rThumb2
                {
                  OFFSET -3.37035 -0.52449 3.41376
                  CHANNELS 3 Zrotation Xrotation Yrotation
                  End Site
                  {
                    OFFSET -1.78271 -1.18214 1.43049
                  }
                }
              }
              JOINT rIndex1
              {
                OFFSET -7.75947 0.938293 5.60832
                CHANNELS 3 Zrotation Xrotation Yrotation
                JOINT rIndex2
                {
                  OFFSET -2.54057 -0.884171 1.56538
                  CHANNELS 3 Zrotation Xrotation Yrotation
                  End Site
                  {
                    OFFSET -1.62519 -0.234802 1.16502
                  }
                }
              }
              JOINT rMid1
              {
                OFFSET -8.24714 1.18213 3.41376
                CHANNELS 3 Zrotation Xrotation Yrotation
                JOINT rMid2
                {
                  OFFSET -3.10165 -0.590103 1.0647
                  CHANNELS 3 Zrotation Xrotation Yrotation
                  End Site
                  {
                    OFFSET -2.48547 -0.328903 0.83742
                  }
                }
              }
              JOINT rRing1
              {
                OFFSET -8.82822 0.546677 1.51678
                CHANNELS 3 Zrotation Xrotation Yrotation
                JOINT rRing2
                {
                  OFFSET -2.60934 -0.819778 -0.0198488
                  CHANNELS 3 Zrotation Xrotation Yrotation
                  End Site
                  {
                    OFFSET -2.33842 -0.294052 0.168128
                  }
                }
              }
              JOINT rPinky1
              {
                OFFSET -8.27202 -0.0477905 -0.4584
                CHANNELS 3 Zrotation Xrotation Yrotation
                JOINT rPinky2
                {
                  OFFSET -1.82734 -0.647385 -0.700984
                  CHANNELS 3 Zrotation Xrotation Yrotation
                  End Site
                  {
                    OFFSET -1.69225 -0.51767 -0.607171
                  }
                }
              }
            }
          }
        }
      }
      JOINT lCollar
      {
        OFFSET 2.68224 19.2634 -4.8768
        CHANNELS 3 Zrotation Xrotation Yrotation
        JOINT lShldr
        {
          OFFSET 8.77824 -1.95073 1.46304
          CHANNELS 3 Zrotation Xrotation Yrotation
          JOINT lForeArm
          {
            OFFSET 28.1742 -1.7115 0.48768
            CHANNELS 3 Zrotation Xrotation Yrotation
            JOINT lHand
            {
              OFFSET 22.5879 0.773209 7.07136
              CHANNELS 3 Zrotation Xrotation Yrotation
              JOINT lThumb1
              {
                OFFSET 1.2192 -0.487915 3.41376
                CHANNELS 3 Zrotation Xrotation Yrotation
                JOINT lThumb2
                {
                  OFFSET 3.37035 -0.52449 3.41376
                  CHANNELS 3 Zrotation Xrotation Yrotation
                  End Site
                  {
                    OFFSET 1.78271 -1.18214 1.43049
                  }
                }
              }
              JOINT lIndex1
              {
                OFFSET 7.75947 0.938293 5.60832
                CHANNELS 3 Zrotation Xrotation Yrotation
                JOINT lIndex2
                {
                  OFFSET 2.54057 -0.884171 1.56538
                  CHANNELS 3 Zrotation Xrotation Yrotation
                  End Site
                  {
                    OFFSET 1.62519 -0.234802 1.16502
                  }
                }
              }
              JOINT lMid1
              {
                OFFSET 8.24714 1.18213 3.41376
                CHANNELS 3 Zrotation Xrotation Yrotation
                JOINT lMid2
                {
                  OFFSET 3.10165 -0.590103 1.0647
                  CHANNELS 3 Zrotation Xrotation Yrotation
                  End Site
                  {
                    OFFSET 2.48547 -0.328903 0.83742
                  }
                }
              }
              JOINT lRing1
              {
                OFFSET 8.82822 0.546677 1.51678
                CHANNELS 3 Zrotation Xrotation Yrotation
                JOINT lRing2
                {
                  OFFSET 2.60934 -0.819778 -0.0198488
                  CHANNELS 3 Zrotation Xrotation Yrotation
                  End Site
                  {
                    OFFSET 2.33842 -0.294052 0.168128
                  }
                }
              }
              JOINT lPinky1
              {
                OFFSET 8.27202 -0.0477905 -0.4584
                CHANNELS 3 Zrotation Xrotation Yrotation
                JOINT lPinky2
                {
                  OFFSET 1.82734 -0.647385 -0.700984
                  CHANNELS 3 Zrotation Xrotation Yrotation
                  End Site
                  {
                    OFFSET 1.69225 -0.51767 -0.607171
                  }
                }
              }
            }
          }
        }
      }
    }
  }
  JOINT rButtock
  {
    OFFSET -8.77824 4.35084 1.2192
    CHANNELS 3 Zrotation Xrotation Yrotation
    JOINT rThigh
    {
      OFFSET 0 -1.70687 -2.19456
      CHANNELS 3 Zrotation Xrotation Yrotation
      JOINT rShin
      {
        OFFSET 0 -36.8199 0.73152
        CHANNELS 3 Zrotation Xrotation Yrotation
        JOINT rFoot
        {
          OFFSET 0.73152 -45.1104 -5.12064
          CHANNELS 3 Zrotation Xrotation Yrotation
          End Site
          {
            OFFSET -1.1221 -3.69964 12.103
          }
        }
      }
    }
  }
  JOINT lButtock
  {
    OFFSET 8.77824 4.35084 1.2192
    CHANNELS 3 Zrotation Xrotation Yrotation
    JOINT lThigh
    {
      OFFSET 0 -1.70687 -2.19456
      CHANNELS 3 Zrotation Xrotation Yrotation
      JOINT lShin
      {
        OFFSET 0 -36.8199 0.73152
        CHANNELS 3 Zrotation Xrotation Yrotation
        JOINT lFoot
        {
          OFFSET -0.73152 -45.1104 -5.12064
          CHANNELS 3 Zrotation Xrotation Yrotation
          End Site
          {
            OFFSET 1.1221 -3.69964 12.103
          }
        }
      }
    }
  }
}
MOTION
Frames:	9
Frame Time:	0.00833333
15.7518 77.4446 23.7878 20.5438 -69.163 -6.2052 0.215159 18.4207 -6.51374 4.17473 -5.83739 -1.51129 -10.6708 2.97259 -2.44689 13.6898 -14.5394 -0.695822 -0.0 0.0 0.0 -0.0 0.0 0.0 -3.18909e-13 -2.4865e-12 4.5805e-13 78.3165 28.8135 -23.1425 -25.2962 -47.522 98.8747 -0.000426809 -0.589902 -0.0829084 -1.82806e-09 2.38831e-10 -1.37085e-10 -3.15817e-09 4.12776e-10 -2.36275e-10 -1.82805e-09 2.38832e-10 -1.37088e-10 7.73091 5.47488 0.417314 -1.82806e-09 2.38831e-10 -1.37082e-10 2.90554 0.965183 0.102902 -1.82805e-09 2.38831e-10 -1.37083e-10 10.2786 0.731801 0.0259123 -1.82806e-09 2.38834e-10 -1.37082e-10 2.22167 -0.733487 -0.20892 -3.18962e-13 -2.4865e-12 4.57851e-13 -85.3621 35.2592 14.8107 28.3354 -37.9671 -80.3504 0.396972 -17.6286 2.55964 -1.06852e-09 5.78591e-10 -1.7644e-09 -1.82902e-09 9.92861e-10 -3.05385e-09 -1.06852e-09 5.78588e-10 -1.7644e-09 -7.73091 5.47488 -0.417314 -1.06852e-09 5.78589e-10 -1.7644e-09 -2.90554 0.965183 -0.102902 -1.06852e-09 5.7859e-10 -1.7644e-09 -10.2786 0.731801 -0.0259123 -1.06851e-09 5.78594e-10 -1.76441e-09 -2.22167 -0.733487 0.20892 -2.03217e-16 0.0 -3.88251e-19 21.2357 -25.8434 -7.25823 -0.252229 38.0935 0.456088 -5.00359 -16.7507 -12.9449 2.03217e-16 0.0 3.88251e-19 20.5577 -33.9651 -0.485607 3.19215 75.2353 -3.48034 0.37242 6.3252 1.83765
14.2352 77.5277 25.0988 20.0682 -69.5008 -5.5804 0.263766 18.3502 -6.28923 4.55042 -5.92301 -1.43389 -10.5364 2.88285 -2.65884 13.6288 -14.6547 -1.12231 -0.0 0.0 0.0 -0.0 0.0 0.0 -2.69356e-13 -2.06282e-12 4.87952e-13 76.9639 28.0347 -20.6535 -25.1729 -47.7254 99.3273 0.00223499 0.598102 0.0839598 -1.97966e-09 2.40424e-10 -2.39326e-10 -3.41791e-09 4.15156e-10 -4.13068e-10 -1.97965e-09 2.40427e-10 -2.3933e-10 7.73091 5.47488 0.417314 -1.97966e-09 2.40426e-10 -2.39323e-10 2.90554 0.965183 0.102902 -1.97965e-09 2.40427e-10 -2.39324e-10 10.2786 0.731801 0.0259123 -1.97966e-09 2.40429e-10 -2.39322e-10 2.22167 -0.733487 -0.20892 -2.69405e-13 -2.06281e-12 4.87782e-13 -86.1803 35.3501 16.7226 28.3456 -37.7669 -80.034 0.410414 -17.9197 2.60471 -1.49108e-09 2.09758e-10 -2.83491e-09 -2.54245e-09 3.50526e-10 -4.91113e-09 -1.49109e-09 2.09756e-10 -2.83491e-09 -7.73091 5.47488 -0.417314 -1.49108e-09 2.09756e-10 -2.83491e-09 -2.90554 0.965183 -0.102902 -1.49109e-09 2.09757e-10 -2.83492e-09 -10.2786 0.731801 -0.0259123 -1.49107e-09 2.0976e-10 -2.83492e-09 -2.22167 -0.733487 0.20892 -2.03217e-16 0.0 -3.88251e-19 21.0311 -24.3685 -6.62382 -0.235255 37.7955 0.527716 -5.41631 -17.5602 -13.5534 2.03217e-16 0.0 3.88251e-19 21.6775 -35.8735 0.137861 3.17221 75.182 -3.4723 0.472062 4.49774 1.6783
12.6379 77.5223 26.3104 16.7587 -70.2327 -2.5946 -0.0420182 18.265 -6.02417 5.0007 -5.98926 -1.36096 -10.5233 2.90857 -2.87418 13.6434 -14.8674 -1.53008 -0.0 0.0 0.0 -0.0 0.0 0.0 -1.63496e-13 -1.14139e-12 4.69349e-13 75.8642 27.258 -18.2886 -25.0056 -47.9852 99.9258 -0.00188688 2.06085 0.289597 -2.01686e-09 2.94564e-10 -5.79308e-11 -3.47976e-09 5.08443e-10 -9.93945e-11 -2.01686e-09 2.9457e-10 -5.79364e-11 7.73091 5.47488 0.417314 -2.01686e-09 2.9457e-10 -5.79288e-11 2.90554 0.965183 0.102902 -2.01686e-09 2.94572e-10 -5.79297e-11 10.2786 0.731801 0.0259123 -2.01686e-09 2.94573e-10 -5.79248e-11 2.22167 -0.733487 -0.20892 -1.63525e-13 -1.14139e-12 4.69228e-13 -87.1122 35.5301 18.6353 28.3512 -37.6938 -79.9085 0.431701 -18.3591 2.67315 -2.00815e-09 -7.48578e-10 -4.78577e-09 -3.40537e-09 -1.31276e-09 -8.2925e-09 -2.00816e-09 -7.48577e-10 -4.78576e-09 -7.73091 5.47488 -0.417314 -2.00815e-09 -7.4858e-10 -4.78578e-09 -2.90554 0.965183 -0.102902 -2.00816e-09 -7.4858e-10 -4.78578e-09 -10.2786 0.731801 -0.0259123 -2.00814e-09 -7.48578e-10 -4.78579e-09 -2.22167 -0.733487 0.20892 -2.03217e-16 0.0 -3.88251e-19 20.5005 -22.8622 -6.07127 -0.216538 37.4131 0.600376 -5.78113 -18.1305 -14.1226 2.03217e-16 0.0 3.88251e-19 22.5617 -37.7152 0.957688 3.02945 74.6844 -3.34663 0.556213 2.53043 1.42072
11.1733 77.6043 27.8176 19.5101 -70.3421 -4.8849 -0.420083 18.1815 -5.69856 5.38236 -6.04159 -1.28005 -10.5657 2.97142 -3.11606 13.6812 -15.0991 -1.9806 -0.0 0.0 0.0 -0.0 0.0 0.0 -4.893e-14 -1.68705e-13 4.2282e-13 75.0413 26.5708 -16.181 -24.8058 -48.2833 100.624 -0.0122437 3.26725 0.459613 -1.92976e-09 3.21234e-10 1.4774e-10 -3.32745e-09 5.54386e-10 2.5638e-10 -1.92975e-09 3.21242e-10 1.47732e-10 7.73091 5.47488 0.417314 -1.92976e-09 3.21243e-10 1.47741e-10 2.90554 0.965183 0.102902 -1.92975e-09 3.21245e-10 1.4774e-10 10.2786 0.731801 0.0259123 -1.92976e-09 3.21245e-10 1.47749e-10 2.22167 -0.733487 -0.20892 -4.89401e-14 -1.68702e-13 4.22746e-13 -87.9954 35.8184 20.4193 28.3535 -37.7073 -79.9164 0.457394 -18.868 2.75296 -2.3699e-09 -1.67807e-09 -6.4366e-09 -4.00444e-09 -2.92464e-09 -1.11534e-08 -2.3699e-09 -1.67806e-09 -6.43658e-09 -7.73091 5.47488 -0.417314 -2.3699e-09 -1.67807e-09 -6.43661e-09 -2.90554 0.965183 -0.102902 -2.3699e-09 -1.67807e-09 -6.43661e-09 -10.2786 0.731801 -0.0259123 -2.36989e-09 -1.67807e-09 -6.43662e-09 -2.22167 -0.733487 0.20892 -2.03217e-16 0.0 -3.88251e-19 19.8582 -21.3088 -5.51353 -0.197238 36.9351 0.668153 -6.07127 -18.4806 -14.592 2.03217e-16 0.0 3.88251e-19 23.2762 -39.3862 1.76715 2.77965 73.6978 -3.1152 0.628038 0.637317 1.25288
9.59727 77.7777 29.316 21.2749 -70.4317 -6.297 -0.58856 18.116 -5.29227 5.55225 -6.08544 -1.17871 -10.5995 2.99311 -3.40755 13.691 -15.2706 -2.53487 -0.0 0.0 0.0 -0.0 0.0 0.0 2.67447e-14 4.08774e-13 3.68944e-13 74.499 26.0702 -14.455 -24.5868 -48.6035 101.372 -0.0166954 3.68632 0.518802 -1.70843e-09 2.40415e-10 1.18326e-10 -2.94469e-09 4.14735e-10 2.05888e-10 -1.70843e-09 2.40424e-10 1.18317e-10 7.73091 5.47488 0.417314 -1.70843e-09 2.40426e-10 1.18326e-10 2.90554 0.965183 0.102902 -1.70842e-09 2.40428e-10 1.18325e-10 10.2786 0.731801 0.0259123 -1.70843e-09 2.40428e-10 1.18336e-10 2.22167 -0.733487 -0.20892 2.67301e-14 4.08777e-13 3.68895e-13 -88.6643 36.2435 21.9447 28.3519 -37.7654 -80.0032 0.483321 -19.3678 2.83177 -2.32649e-09 -1.96036e-09 -6.607e-09 -3.92629e-09 -3.41279e-09 -1.14494e-08 -2.3265e-09 -1.96036e-09 -6.60698e-09 -7.73091 5.47488 -0.417314 -2.3265e-09 -1.96037e-09 -6.60701e-09 -2.90554 0.965183 -0.102902 -2.3265e-09 -1.96037e-09 -6.60701e-09 -10.2786 0.731801 -0.0259123 -2.32649e-09 -1.96037e-09 -6.60702e-09 -2.22167 -0.733487 0.20892 -2.03217e-16 0.0 -3.88251e-19 19.3077 -19.6902 -4.86768 -0.178727 36.3503 0.72528 -6.26091 -18.6301 -14.902 2.03217e-16 0.0 3.88251e-19 23.8473 -40.7887 2.33412 2.45604 72.1775 -2.80721 0.717073 -0.966907 1.36143
7.86603 78.0839 30.7582 21.8347 -70.7231 -6.7537 -0.422836 18.0646 -4.79034 5.35126 -6.11685 -1.05599 -10.5931 2.99457 -3.77471 13.7148 -15.4163 -3.24833 -0.0 0.0 0.0 -0.0 0.0 0.0 4.44427e-14 3.64042e-13 3.03064e-13 74.3463 25.749 -13.1256 -24.3277 -48.9748 102.235 -0.00578254 2.90974 0.409156 -1.25184e-09 -2.93621e-11 -3.1783e-10 -2.15798e-09 -5.09883e-11 -5.47279e-10 -1.25184e-09 -2.93529e-11 -3.1784e-10 7.73091 5.47488 0.417314 -1.25184e-09 -2.93509e-11 -3.1783e-10 2.90554 0.965183 0.102902 -1.25183e-09 -2.93502e-11 -3.17832e-10 10.2786 0.731801 0.0259123 -1.25184e-09 -2.93501e-11 -3.17821e-10 2.22167 -0.733487 -0.20892 4.43809e-14 3.64044e-13 3.03007e-13 -88.9881 36.8962 23.1927 28.3439 -37.8699 -80.1811 0.513317 -19.9392 2.92225 -1.59381e-09 -1.15006e-09 -4.2633e-09 -2.69604e-09 -2.00376e-09 -7.38968e-09 -1.59382e-09 -1.15005e-09 -4.26328e-09 -7.73091 5.47488 -0.417314 -1.59381e-09 -1.15006e-09 -4.2633e-09 -2.90554 0.965183 -0.102902 -1.59382e-09 -1.15006e-09 -4.26331e-09 -10.2786 0.731801 -0.0259123 -1.59381e-09 -1.15006e-09 -4.26332e-09 -2.22167 -0.733487 0.20892 -2.03217e-16 0.0 -3.88251e-19 18.9356 -17.8622 -4.02426 -0.157931 35.4606 0.772599 -6.38119 -18.6575 -15.0966 2.03217e-16 0.0 3.88251e-19 24.2319 -41.9319 2.62698 2.09555 70.0544 -2.46101 0.877846 -2.27658 1.94002
6.1434 78.3923 32.1041 21.5324 -70.9655 -6.379 -0.0895841 18.0205 -4.20671 4.89597 -6.1347 -0.917745 -10.5856 3.00353 -4.1986 13.7601 -15.5581 -4.07568 -0.0 0.0 0.0 -0.0 0.0 0.0 3.16805e-14 -2.88009e-14 2.17585e-13 74.4984 25.5975 -12.1116 -24.0202 -49.3885 103.226 0.00649431 1.30954 0.183889 -5.9807e-10 -4.25377e-10 -9.88238e-10 -1.03241e-09 -7.34513e-10 -1.70505e-09 -5.98069e-10 -4.25369e-10 -9.88248e-10 7.73091 5.47488 0.417314 -5.98075e-10 -4.25367e-10 -9.88238e-10 2.90554 0.965183 0.102902 -5.98063e-10 -4.25368e-10 -9.88241e-10 10.2786 0.731801 0.0259123 -5.98072e-10 -4.25367e-10 -9.88232e-10 2.22167 -0.733487 -0.20892 3.15445e-14 -2.88011e-14 2.17501e-13 -89.0966 37.7461 24.242 28.3288 -38.0374 -80.4729 0.549084 -20.5901 3.02623 -3.77595e-10 3.29556e-10 -2.74671e-10 -6.55696e-10 5.68027e-10 -4.79914e-10 -3.77602e-10 3.29562e-10 -2.74659e-10 -7.73091 5.47488 -0.417314 -3.77595e-10 3.29556e-10 -2.74671e-10 -2.90554 0.965183 -0.102902 -3.77604e-10 3.29557e-10 -2.74673e-10 -10.2786 0.731801 -0.0259123 -3.77592e-10 3.29557e-10 -2.74678e-10 -2.22167 -0.733487 0.20892 -2.03217e-16 0.0 -3.88251e-19 18.5941 -15.8775 -3.06407 -0.134744 34.3371 0.81232 -6.4265 -18.5303 -15.185 2.03217e-16 0.0 3.88251e-19 24.3938 -42.86 2.7349 1.73946 67.3708 -2.11849 1.11202 -3.38738 2.84146
4.44462 78.768 33.4422 21.4604 -70.9596 -6.1486 0.255323 17.995 -3.56438 4.45688 -6.1487 -0.761707 -10.6205 2.95204 -4.63467 13.7308 -15.5991 -4.92505 -0.0 0.0 0.0 -0.0 0.0 0.0 1.07623e-14 -4.64575e-13 1.28682e-13 74.6598 25.711 -11.3897 -23.7062 -49.7785 104.204 0.00566631 -0.47453 -0.0667603 5.41036e-11 -8.11364e-10 -1.63604e-09 9.0487e-11 -1.40097e-09 -2.82405e-09 5.41068e-11 -8.11358e-10 -1.63605e-09 7.73091 5.47488 0.417314 5.41004e-11 -8.11356e-10 -1.63604e-09 2.90554 0.965183 0.102902 5.41133e-11 -8.11358e-10 -1.63604e-09 10.2786 0.731801 0.0259123 5.41022e-11 -8.11357e-10 -1.63603e-09 2.22167 -0.733487 -0.20892 1.05584e-14 -4.64576e-13 1.28564e-13 -89.1981 38.6469 25.0977 28.3084 -38.2481 -80.8404 0.580615 -21.1333 3.11391 8.37164e-10 1.79379e-09 3.68499e-09 1.38277e-09 3.11317e-09 6.38007e-09 8.37159e-10 1.79379e-09 3.68499e-09 -7.73091 5.47488 -0.417314 8.37165e-10 1.79379e-09 3.68499e-09 -2.90554 0.965183 -0.102902 8.37154e-10 1.79379e-09 3.68499e-09 -10.2786 0.731801 -0.0259123 8.37166e-10 1.79379e-09 3.68499e-09 -2.22167 -0.733487 0.20892 -2.03217e-16 0.0 -3.88251e-19 18.16 -14.0171 -2.17961 -0.116612 33.372 0.841421 -6.31944 -18.1012 -15.0576 2.03217e-16 0.0 3.88251e-19 24.3436 -43.5312 2.58882 1.4168 64.249 -1.80307 1.35681 -4.23738 3.7404
2.74415 79.1123 34.6558 19.7432 -71.1874 -4.5538 0.455285 17.9999 -2.88613 4.30458 -6.16854 -0.585587 -10.7433 2.77236 -5.03831 13.5371 -15.4447 -5.70287 -0.0 0.0 0.0 -0.0 0.0 0.0 3.9925e-15 -6.38098e-13 5.25288e-14 74.5387 26.1817 -10.9388 -23.4394 -50.0869 105.012 -0.00398678 -1.80258 -0.25342 5.05918e-10 -1.05106e-09 -2.00436e-09 8.69169e-10 -1.81548e-09 -3.46092e-09 5.05922e-10 -1.05105e-09 -2.00437e-09 7.73091 5.47488 0.417314 5.05916e-10 -1.05105e-09 -2.00436e-09 2.90554 0.965183 0.102902 5.05929e-10 -1.05105e-09 -2.00437e-09 10.2786 0.731801 0.0259123 5.05917e-10 -1.05105e-09 -2.00436e-09 2.22167 -0.733487 -0.20892 3.76037e-15 -6.38101e-13 5.23798e-14 -89.4869 39.4536 25.7525 28.2853 -38.4831 -81.2443 0.59562 -21.3814 3.15427 1.56547e-09 2.55794e-09 5.94178e-09 2.60738e-09 4.44226e-09 1.02904e-08 1.56546e-09 2.55794e-09 5.94178e-09 -7.73091 5.47488 -0.417314 1.56547e-09 2.55794e-09 5.94179e-09 -2.90554 0.965183 -0.102902 1.56546e-09 2.55794e-09 5.94179e-09 -10.2786 0.731801 -0.0259123 1.56547e-09 2.55794e-09 5.94179e-09 -2.22167 -0.733487 0.20892 -2.03217e-16 0.0 -3.88251e-19 17.5529 -12.5668 -1.55095 -0.112113 32.9575 0.857146 -5.99292 -17.2194 -14.6101 2.03217e-16 0.0 3.88251e-19 24.0966 -43.9017 2.12246 1.1394 60.8115 -1.5206 1.52392 -4.76723 4.30933
